<?xml version="1.0" encoding="UTF-8"?>
<svg width="14px" height="11px" viewBox="0 0 14 11" version="1.1" xmlns="http://www.w3.org/2000/svg" xmlns:xlink="http://www.w3.org/1999/xlink">
    <!-- Generator: Sketch 59.1 (86144) - https://sketch.com -->
    <title>Icons / Full arrow right</title>
    <desc>Created with Sketch.</desc>
    <defs>
        <path d="M8.82914786,3.80603448 C8.82914786,3.99568966 8.89178104,4.21695402 9.048364,4.375 L12.3679227,7.72557471 L1.78291479,7.72557471 C1.34448251,7.72557471 1,8.07327586 1,8.5158046 C1,8.95833333 1.34448251,9.30603448 1.78291479,9.30603448 L12.3679227,9.30603448 L9.048364,12.625 C8.89178104,12.783046 8.82914786,12.9727011 8.82914786,13.1939655 C8.82914786,13.4152299 8.89178104,13.6048851 9.048364,13.762931 C9.36152991,14.079023 9.86259538,14.079023 10.1444447,13.762931 L14.7793002,9.08477011 C14.8106168,9.05316092 14.8419334,8.98994253 14.87325,8.95833333 C15.029833,8.73706897 15.029833,8.45258621 14.9358832,8.23132184 C14.9045666,8.13649425 14.8419334,8.04166667 14.7793002,7.97844828 C14.7793002,7.97844828 14.7793002,7.97844828 14.7793002,7.97844828 L10.1444447,3.23706897 C9.83127879,2.92097701 9.33021332,2.92097701 9.048364,3.23706897 C8.89178104,3.39511494 8.82914786,3.58477011 8.82914786,3.80603448 Z" id="path-1"></path>
    </defs>
    <g id="Page-1" stroke="none" stroke-width="1" fill="none" fill-rule="evenodd">
        <g id="Icons-/-Full-arrow-right" transform="translate(-1.000000, -3.000000)">
            <mask id="mask-2" fill="white">
                <use xlink:href="#path-1"></use>
            </mask>
            <use id="Shape" fill="#009848" fill-rule="nonzero" xlink:href="#path-1"></use>
            <g id="Colors-/-notBlack" mask="url(#mask-2)" fill="#121212" fill-rule="evenodd">
                <rect id="Rectangle" x="0" y="0" width="16" height="16"></rect>
            </g>
        </g>
    </g>
</svg>